<svg width="40" height="40" viewBox="0 0 40 40" fill="none" xmlns="http://www.w3.org/2000/svg">
<rect width="39.9999" height="40" rx="20" fill="white"/>
<path fill-rule="evenodd" clip-rule="evenodd" d="M20 0C31.0456 0 39.9999 8.95434 39.9999 20C39.9999 31.0457 31.0456 40 20 40V0ZM22.5 15L23.75 12.5H25L22.5 16.25V15ZM26.25 7.5L27.5 5V7.5H26.25ZM25 2.5L23.5714 7.5H22.5V2.5H25ZM23.75 17.5H25L27.5 16.25V15L23.75 17.5ZM32.5 17.5V16.4286L37.5 15V17.5H32.5ZM35 12.5L32.5 13.75V12.5H35ZM23.75 27.5L22.5 25V23.75L25 27.5H23.75ZM23.5714 32.5H22.5V37.5H25L23.5714 32.5ZM27.5 35V32.5H26.25L27.5 35ZM27.5 25V23.75L25 22.5H23.75L27.5 25ZM35 27.5L32.5 26.25V27.5H35ZM37.5 22.5V25L32.5 23.5714V22.5H37.5Z" fill="#181717"/>
<path fill-rule="evenodd" clip-rule="evenodd" d="M20 40C8.95431 40 0 31.0457 0 20C0 8.95434 8.95431 0 20 0V40ZM17.5 25L16.2499 27.5H15L17.5 23.75V25ZM13.75 32.5L12.5 35V32.5H13.75ZM16.4285 32.5H17.5V37.5H15L16.4285 32.5ZM12.5 23.75V25L16.2499 22.5H14.9999L12.5 23.75ZM7.49995 22.5V23.5714L2.49995 25V22.5H7.49995ZM7.49995 26.25L4.99995 27.5H7.49995V26.25ZM17.5 15L16.2499 12.5H15L17.5 16.25V15ZM17.5 7.5H16.4285L15 2.5H17.5V7.5ZM12.5 7.5V5L13.75 7.5H12.5ZM14.9999 17.5H16.2499L12.5 15V16.25L14.9999 17.5ZM2.49995 17.5V15L7.49995 16.4286V17.5H2.49995ZM7.49995 12.5V13.75L4.99995 12.5H7.49995Z" fill="#181717"/>
</svg>
