<svg width="216" height="37" viewBox="0 0 216 37" fill="none" xmlns="http://www.w3.org/2000/svg">
<path fill-rule="evenodd" clip-rule="evenodd" d="M0 18.5C0 28.7172 8.28275 37 18.5 37C28.7173 37 37 28.7172 37 18.5C37 8.28276 28.7173 0 18.5 0C8.28275 0 0 8.28276 0 18.5ZM15.0312 25.4375L16.1875 23.125V21.9687L13.875 25.4375H15.0312ZM11.5625 32.375L12.7187 30.0625H11.5625V32.375ZM16.1875 30.0625H15.1964L13.875 34.6875H16.1875V30.0625ZM11.5625 23.125V21.9687L13.875 20.8125H15.0312L11.5625 23.125ZM6.93747 21.8036V20.8125H2.31246V23.125L6.93747 21.8036ZM4.62497 25.4375L6.93747 24.2812V25.4375H4.62497ZM15.0312 11.5625L16.1875 13.875V15.0313L13.875 11.5625H15.0312ZM15.1964 6.9375H16.1875V2.3125H13.875L15.1964 6.9375ZM11.5625 4.625V6.9375H12.7187L11.5625 4.625ZM15.0312 16.1875H13.875L11.5625 15.0313V13.875L15.0312 16.1875ZM2.31246 13.875V16.1875H6.93747V15.1964L2.31246 13.875ZM6.93747 12.7188V11.5625H4.62497L6.93747 12.7188ZM21.9688 11.5625L20.8125 13.875V15.0313L23.125 11.5625H21.9688ZM25.4375 4.625L24.2813 6.9375H25.4375V4.625ZM21.8036 6.9375L23.125 2.3125H20.8125V6.9375H21.8036ZM21.9688 16.1875L25.4375 13.875V15.0313L23.125 16.1875H21.9688ZM30.0625 12.7188L32.375 11.5625H30.0625V12.7188ZM34.6875 13.875L30.0625 15.1964V16.1875H34.6875V13.875ZM20.8125 23.125L21.9688 25.4375H23.125L20.8125 21.9687V23.125ZM25.4375 32.375L24.2813 30.0625H25.4375V32.375ZM21.8036 30.0625L23.125 34.6875H20.8125V30.0625H21.8036ZM25.4375 23.125L21.9688 20.8125H23.125L25.4375 21.9687V23.125ZM30.0625 24.2812L32.375 25.4375H30.0625V24.2812ZM30.0625 21.8036L34.6875 23.125V20.8125H30.0625V21.8036Z" fill="white"/>
<path d="M43.2909 26.5702L43 22.3483H43.0485C44.576 23.5618 45.2791 23.9663 46.2731 23.9663C47.4854 23.9663 48.334 23.2331 48.334 21.9944C48.334 21.2107 47.7763 20.4522 46.8793 19.5421L45.0124 17.6966C43.8728 16.6096 43.2909 15.3961 43.2909 14.0056C43.2909 10.9213 45.764 9.15168 48.9401 9.15168C49.8372 9.15168 50.7343 9.32865 51.2919 9.48034L51.6799 13.4747H51.6314C50.5161 12.2612 49.6917 11.8062 48.8189 11.8062C47.6794 11.8062 46.952 12.3876 46.952 13.3736C46.952 14.0562 47.4612 14.6882 48.2613 15.4972L50.2979 17.4438C51.5586 18.632 52.189 20.0478 52.189 21.6152C52.189 25.1798 49.716 26.9494 46.4186 26.9494C45.4245 26.9494 43.9698 26.7219 43.2909 26.5702Z" fill="white"/>
<path d="M61.525 26.9747C56.7002 26.9747 52.9179 23.6376 52.9179 18.0506C52.9179 12.4635 56.7002 9.10112 61.525 9.10112C66.3498 9.10112 70.1321 12.4382 70.1321 18.0253C70.1321 23.6124 66.3498 26.9747 61.525 26.9747ZM61.816 24.118C64.289 24.118 66.1801 21.9944 66.1801 18.4551C66.1801 14.309 64.1193 11.9579 61.2341 11.9579C58.761 11.9579 56.8456 14.0815 56.8456 17.6208C56.8456 21.7669 58.9308 24.118 61.816 24.118Z" fill="white"/>
<path d="M70.2151 26.6208V26.5702C71.3546 25.559 71.4274 25.0028 72.0093 18.2275C72.276 15.0421 72.5669 12.9438 72.7366 9.10112H75.6703C76.3007 10.4916 79.8648 17.4691 81.1983 20.1994C82.5318 17.4691 86.1443 10.4663 86.702 9.10112H89.3205C89.6114 12.7921 89.7327 14.8652 90.0478 18.177C90.7267 24.9522 90.8237 25.5843 91.9147 26.5702V26.6208H85.9746V26.5702C86.799 26.1657 87.0172 25.8876 87.0172 24.573C87.0172 23.7388 86.8959 22.4242 86.7262 20.3511C86.605 18.6067 86.5323 16.9635 86.4595 15.573C84.4956 19.3146 81.4892 25.1292 80.9073 26.5197H80.7618C80.2527 25.1292 77.3917 19.4916 75.4279 15.5983C75.3309 16.8876 75.1854 18.4803 74.9914 20.4017C74.846 22.3736 74.7247 23.6376 74.7247 24.4719C74.7247 25.8624 74.9914 26.1657 75.9128 26.5702V26.6208H70.2151Z" fill="white"/>
<path d="M91.864 26.6208V26.5702C93.149 25.6096 93.2217 25.2556 93.2217 18.0506V14.941C93.2217 13.2725 93.1975 11.5787 93.1005 9.05056L93.3672 9C96.0099 11.3258 100.253 15.4466 103.429 18.5562C103.405 18 103.405 17.3427 103.405 16.6348C103.405 11.1489 103.259 10.5169 101.926 9.48034V9.42978H107.769V9.48034C106.629 10.4157 106.557 10.8455 106.557 18.0506C106.557 23.6882 106.629 25.4831 106.751 26.9494L106.581 27C104.375 24.5225 99.7922 19.8961 96.3494 16.4579C96.3494 17.1657 96.3736 18.0253 96.3736 19.0365C96.3736 24.9017 96.5191 25.559 97.8526 26.5702V26.6208H91.864Z" fill="white"/>
<path d="M107.737 26.6208V26.5702C108.61 25.9888 108.804 25.736 112.053 17.9494C113.92 13.5506 114.671 11.7809 115.011 10.9213C114.623 10.3904 114.186 9.98595 113.605 9.48034V9.42978H118.187C118.284 9.93539 118.526 10.5169 121.678 17.9494C124.903 25.736 125.073 25.8876 125.994 26.5702V26.6208H119.642V26.5702C120.102 26.1152 120.369 25.7865 120.369 25.0787C120.369 24.3202 120.054 23.1573 119.254 21.0337C118.502 21.0084 117.654 21.0084 116.708 21.0084C115.593 21.0084 114.599 21.0084 113.726 21.059C112.998 23.1067 112.707 24.2697 112.707 25.0281C112.707 25.7865 112.998 26.1405 113.411 26.5702V26.6208H107.737ZM114.574 18.7584C115.229 18.7837 115.956 18.7837 116.708 18.7837C117.29 18.7837 117.847 18.7837 118.381 18.7837C118.187 18.3287 117.993 17.8483 117.799 17.3427C117.266 16.0281 116.853 14.941 116.465 14.0056C116.15 14.8652 115.714 15.927 115.132 17.3427C114.938 17.8483 114.744 18.3287 114.574 18.7584Z" fill="white"/>
<path d="M125.676 18.0506C125.676 12.514 129.821 9.10112 135.107 9.10112C136.562 9.10112 138.332 9.45506 139.059 9.5309L139.35 14.486H139.301C138.041 12.691 137.168 12.236 135.228 12.236C132.125 12.236 129.7 14.2331 129.7 17.6208C129.7 21.6152 132.149 23.8146 135.543 23.8146C137.047 23.8146 138.186 23.2584 139.617 21.7416H139.641L139.301 25.9129C138.453 26.4185 136.634 26.8989 134.477 26.8989C129.531 26.8989 125.676 23.486 125.676 18.0506Z" fill="white"/>
<path d="M140.768 26.6208V26.5702C142.028 25.6348 142.125 25.1545 142.125 18.0506C142.125 10.9466 142.004 10.4157 140.768 9.48034V9.42978C141.689 9.45506 142.319 9.48034 143.895 9.48034C145.374 9.48034 146.174 9.42978 148.696 9.42978C152.187 9.42978 153.715 11.0983 153.715 14.0056C153.715 16.1292 152.624 17.7472 151.023 18.6067C154.854 25.5337 155.436 26.0899 156.576 26.4691V26.5197C155.291 26.5702 154.03 26.6966 152.551 26.6966C151.872 26.6966 151.581 26.4185 151.145 25.8118C150.272 24.4719 148.962 21.8933 147.556 19.264C146.877 19.2388 146.271 19.1882 145.786 19.1376C145.786 25.2051 145.932 25.6854 147.12 26.5702V26.6208H140.768ZM145.786 16.6348C146.489 16.7107 147.217 16.7107 147.629 16.7107C149.084 16.7107 150.005 15.7753 150.005 14.309C150.005 12.7163 149.253 11.9326 147.532 11.9326C147.047 11.9326 146.538 11.9579 145.859 11.9831C145.811 13.323 145.786 14.8399 145.786 16.6348Z" fill="white"/>
<path d="M156.513 26.6208V26.5702C157.701 25.5337 157.847 24.9522 157.847 18.0506C157.847 11.1489 157.701 10.5169 156.513 9.48034V9.45506C164.175 9.45506 165.969 9.42978 166.551 9.27809H166.6L166.769 12.7416H166.721C165.727 12.236 164.805 12.059 163.351 12.059C162.72 12.059 162.138 12.059 161.629 12.0843C161.581 12.9691 161.532 14.1573 161.532 15.6742C161.847 15.6994 162.211 15.6994 162.599 15.6994C163.666 15.6994 164.951 15.6489 166.43 15.4719L166.503 18.3287C164.393 18.1517 162.793 18.1517 161.508 18.1517C161.508 20.7051 161.532 22.4494 161.605 23.7135C162.138 23.7135 162.744 23.7135 163.448 23.7135C164.999 23.7135 165.896 23.3596 167.036 22.7781H167.084L166.915 26.7725H166.866C166.284 26.5955 163.52 26.6208 159.447 26.6208C158.526 26.6208 157.532 26.6208 156.513 26.6208Z" fill="white"/>
<path d="M167.333 26.6208V26.5702C168.205 25.9888 168.399 25.736 171.648 17.9494C173.515 13.5506 174.267 11.7809 174.606 10.9213C174.218 10.3904 173.782 9.98595 173.2 9.48034V9.42978H177.782C177.879 9.93539 178.122 10.5169 181.274 17.9494C184.498 25.736 184.668 25.8876 185.589 26.5702V26.6208H179.237V26.5702C179.698 26.1152 179.964 25.7865 179.964 25.0787C179.964 24.3202 179.649 23.1573 178.849 21.0337C178.098 21.0084 177.249 21.0084 176.303 21.0084C175.188 21.0084 174.194 21.0084 173.321 21.059C172.594 23.1067 172.303 24.2697 172.303 25.0281C172.303 25.7865 172.594 26.1405 173.006 26.5702V26.6208H167.333ZM174.17 18.7584C174.824 18.7837 175.552 18.7837 176.303 18.7837C176.885 18.7837 177.443 18.7837 177.976 18.7837C177.782 18.3287 177.588 17.8483 177.394 17.3427C176.861 16.0281 176.449 14.941 176.061 14.0056C175.746 14.8652 175.309 15.927 174.727 17.3427C174.533 17.8483 174.339 18.3287 174.17 18.7584Z" fill="white"/>
<path d="M185.683 26.6208V26.5702C186.944 25.6348 187.041 25.1545 187.041 18.0506C187.041 10.9466 186.92 10.4157 185.683 9.48034V9.42978C186.604 9.45506 187.235 9.48034 188.811 9.48034C190.29 9.48034 191.09 9.42978 193.611 9.42978C197.103 9.42978 198.63 11.0983 198.63 14.0056C198.63 16.1292 197.539 17.7472 195.939 18.6067C199.77 25.5337 200.352 26.0899 201.491 26.4691V26.5197C200.206 26.5702 198.945 26.6966 197.466 26.6966C196.788 26.6966 196.497 26.4185 196.06 25.8118C195.187 24.4719 193.878 21.8933 192.472 19.264C191.793 19.2388 191.187 19.1882 190.702 19.1376C190.702 25.2051 190.847 25.6854 192.035 26.5702V26.6208H185.683ZM190.702 16.6348C191.405 16.7107 192.132 16.7107 192.545 16.7107C193.999 16.7107 194.921 15.7753 194.921 14.309C194.921 12.7163 194.169 11.9326 192.448 11.9326C191.963 11.9326 191.454 11.9579 190.775 11.9831C190.726 13.323 190.702 14.8399 190.702 16.6348Z" fill="white"/>
<path d="M201.429 26.6208V26.5702C202.617 25.5337 202.762 24.9522 202.762 18.0506C202.762 11.1489 202.617 10.5169 201.429 9.48034V9.45506C209.091 9.45506 210.885 9.42978 211.467 9.27809H211.515L211.685 12.7416H211.636C210.642 12.236 209.721 12.059 208.266 12.059C207.636 12.059 207.054 12.059 206.545 12.0843C206.496 12.9691 206.448 14.1573 206.448 15.6742C206.763 15.6994 207.127 15.6994 207.515 15.6994C208.581 15.6994 209.866 15.6489 211.345 15.4719L211.418 18.3287C209.309 18.1517 207.709 18.1517 206.424 18.1517C206.424 20.7051 206.448 22.4494 206.521 23.7135C207.054 23.7135 207.66 23.7135 208.363 23.7135C209.915 23.7135 210.812 23.3596 211.951 22.7781H212L211.83 26.7725H211.782C211.2 26.5955 208.436 26.6208 204.363 26.6208C203.441 26.6208 202.447 26.6208 201.429 26.6208Z" fill="white"/>
</svg>
