<svg width="252" height="40" viewBox="0 0 1257 200" fill="none" xmlns="http://www.w3.org/2000/svg">
<g clip-path="url(#clip0_201_46)">
<mask id="mask0_201_46" style="mask-type:luminance" maskUnits="userSpaceOnUse" x="100" y="100" width="100" height="100">
<path d="M200 100C200 113.132 197.413 126.136 192.388 138.268C187.362 150.401 179.997 161.425 170.711 170.711C161.425 179.997 150.401 187.362 138.268 192.388C126.136 197.413 113.132 200 100 200L100 100H200Z" fill="white"/>
</mask>
<g mask="url(#mask0_201_46)">
<path d="M106.001 106H144.001V144H106.001V106Z" stroke="#181717" stroke-width="12"/>
<path d="M156.001 106H194.001V144H156.001V106Z" stroke="#181717" stroke-width="12"/>
<path d="M106.001 156H144.001V194H106.001V156Z" stroke="#181717" stroke-width="12"/>
<path d="M150.001 150H200.001V200H150.001V150Z" fill="#181717"/>
<path d="M100.001 100.5L140.001 135.5L140.001 140L136.001 140L100.001 100.5Z" fill="#181717" stroke="#181717" stroke-width="3"/>
<path d="M100.001 100.5L186.501 118L186.501 136.5L173.001 136.5L100.001 100.5Z" fill="#181717" stroke="#181717" stroke-width="3"/>
<path d="M100.001 100.5L137.001 172L137.001 186.5L123.001 186.5L100.001 100.5Z" fill="#181717" stroke="#181717" stroke-width="3"/>
</g>
<mask id="mask1_201_46" style="mask-type:luminance" maskUnits="userSpaceOnUse" x="0" y="0" width="100" height="100">
<path d="M-1.66893e-06 100C-1.66893e-06 86.8678 2.58658 73.8642 7.61205 61.7317C12.6375 49.5991 20.0035 38.5752 29.2893 29.2893C38.5752 20.0035 49.5991 12.6375 61.7317 7.61205C73.8642 2.58658 86.8678 -5.74026e-07 100 0L100 100H-1.66893e-06Z" fill="white"/>
</mask>
<g mask="url(#mask1_201_46)">
<path d="M93.999 94H55.999V56H93.999V94Z" stroke="#181717" stroke-width="12"/>
<path d="M43.999 94H5.99902V56H43.999V94Z" stroke="#181717" stroke-width="12"/>
<path d="M93.999 44H55.999V6H93.999V44Z" stroke="#181717" stroke-width="12"/>
<path d="M49.999 50H-0.000976562V0H49.999V50Z" fill="#181717"/>
<path d="M99.9993 99.5L59.9987 64.5L59.999 60L63.9987 60L99.9993 99.5Z" fill="#181717" stroke="#181717" stroke-width="3"/>
<path d="M99.999 99.5L13.4994 82L13.4994 63.5L26.999 63.5L99.999 99.5Z" fill="#181717" stroke="#181717" stroke-width="3"/>
<path d="M99.999 99.5001L62.999 28L62.999 13.5L76.9987 13.5L99.999 99.5001Z" fill="#181717" stroke="#181717" stroke-width="3"/>
</g>
<mask id="mask2_201_46" style="mask-type:luminance" maskUnits="userSpaceOnUse" x="100" y="0" width="100" height="100">
<path d="M200 100C200 86.8678 197.413 73.8642 192.388 61.7317C187.362 49.5991 179.997 38.5752 170.711 29.2893C161.425 20.0035 150.401 12.6375 138.268 7.61205C126.136 2.58658 113.132 -5.74026e-07 100 0L100 100H200Z" fill="white"/>
</mask>
<g mask="url(#mask2_201_46)">
<path d="M106.001 94H144.001V56H106.001V94Z" stroke="#181717" stroke-width="12"/>
<path d="M156.001 94H194.001V56H156.001V94Z" stroke="#181717" stroke-width="12"/>
<path d="M106.001 44H144.001V6H106.001V44Z" stroke="#181717" stroke-width="12"/>
<path d="M150.001 50H200.001V0H150.001V50Z" fill="#181717"/>
<path d="M100.001 99.5L140.001 64.5L140.001 60L136.001 60L100.001 99.5Z" fill="#181717" stroke="#181717" stroke-width="3"/>
<path d="M100.001 99.5L186.501 82L186.501 63.5L173.001 63.5L100.001 99.5Z" fill="#181717" stroke="#181717" stroke-width="3"/>
<path d="M100.001 99.5001L137.001 28L137.001 13.5L123.001 13.5L100.001 99.5001Z" fill="#181717" stroke="#181717" stroke-width="3"/>
</g>
<mask id="mask3_201_46" style="mask-type:luminance" maskUnits="userSpaceOnUse" x="0" y="100" width="100" height="100">
<path d="M-1.66893e-06 100C-1.66893e-06 113.132 2.58658 126.136 7.61205 138.268C12.6375 150.401 20.0035 161.425 29.2893 170.711C38.5752 179.997 49.5991 187.362 61.7317 192.388C73.8642 197.413 86.8678 200 100 200L100 100H-1.66893e-06Z" fill="white"/>
</mask>
<g mask="url(#mask3_201_46)">
<path d="M93.999 106H55.999V144H93.999V106Z" stroke="#181717" stroke-width="12"/>
<path d="M43.999 106H5.99902V144H43.999V106Z" stroke="#181717" stroke-width="12"/>
<path d="M93.999 156H55.999V194H93.999V156Z" stroke="#181717" stroke-width="12"/>
<path d="M49.999 150H-0.000976562V200H49.999V150Z" fill="#181717"/>
<path d="M99.9993 100.5L59.9987 135.5L59.999 140L63.9987 140L99.9993 100.5Z" fill="#181717" stroke="#181717" stroke-width="3"/>
<path d="M99.999 100.5L13.4994 118L13.4994 136.5L26.999 136.5L99.999 100.5Z" fill="#181717" stroke="#181717" stroke-width="3"/>
<path d="M99.999 100.5L62.999 172L62.999 186.5L76.9987 186.5L99.999 100.5Z" fill="#181717" stroke="#181717" stroke-width="3"/>
</g>
<path d="M220.787 150.469L219 125.607H219.298C228.68 132.753 232.998 135.135 239.104 135.135C246.549 135.135 251.761 130.817 251.761 123.522C251.761 118.907 248.336 114.441 242.826 109.081L231.36 98.2135C224.361 91.8118 220.787 84.6657 220.787 76.4775C220.787 58.3146 235.976 47.8933 255.484 47.8933C260.994 47.8933 266.504 48.9354 269.929 49.8287L272.312 73.3511H272.014C265.164 66.2051 260.101 63.5253 254.74 63.5253C247.741 63.5253 243.273 66.9494 243.273 72.7556C243.273 76.7753 246.4 80.4972 251.315 85.2612L263.824 96.7247C271.567 103.722 275.439 112.059 275.439 121.289C275.439 142.281 260.25 152.702 239.997 152.702C233.892 152.702 224.957 151.362 220.787 150.469Z" fill="#181717"/>
<path d="M332.781 152.851C303.147 152.851 279.916 133.199 279.916 100.298C279.916 67.3961 303.147 47.5955 332.781 47.5955C362.415 47.5955 385.646 67.2472 385.646 100.149C385.646 133.051 362.415 152.851 332.781 152.851ZM334.568 136.028C349.757 136.028 361.373 123.522 361.373 102.68C361.373 78.264 348.715 64.4185 330.994 64.4185C315.804 64.4185 304.04 76.9242 304.04 97.7669C304.04 122.183 316.847 136.028 334.568 136.028Z" fill="#181717"/>
<path d="M386.155 150.767V150.469C393.154 144.514 393.601 141.239 397.175 101.34C398.813 82.5815 400.6 70.2247 401.643 47.5955H419.661C423.533 55.7837 445.424 96.8736 453.614 112.952C461.805 96.8736 483.993 55.6348 487.418 47.5955H503.501C505.288 69.3315 506.033 81.5393 507.968 101.042C512.138 140.941 512.734 144.663 519.435 150.469V150.767H482.951V150.469C488.014 148.087 489.354 146.449 489.354 138.708C489.354 133.795 488.609 126.053 487.567 113.846C486.822 103.573 486.376 93.8961 485.929 85.7079C473.867 107.742 455.401 141.983 451.827 150.171H450.934C447.807 141.983 430.234 108.784 418.172 85.8567C417.577 93.4494 416.683 102.829 415.492 114.143C414.598 125.756 413.854 133.199 413.854 138.112C413.854 146.301 415.492 148.087 421.151 150.469V150.767H386.155Z" fill="#181717"/>
<path d="M519.123 150.767V150.469C527.016 144.812 527.462 142.728 527.462 100.298V81.986C527.462 72.1601 527.313 62.1854 526.718 47.2977L528.356 47C544.588 60.6966 570.648 84.9635 590.156 103.275C590.007 100 590.007 96.1292 590.007 91.9607C590.007 59.6545 589.113 55.9326 580.923 49.8287V49.5309H616.812V49.8287C609.813 55.3371 609.366 57.868 609.366 100.298C609.366 133.497 609.813 144.067 610.557 152.702L609.515 153C595.964 138.41 567.819 111.166 546.672 90.9185C546.672 95.0871 546.821 100.149 546.821 106.104C546.821 140.643 547.715 144.514 555.905 150.469V150.767H519.123Z" fill="#181717"/>
<path d="M616.616 150.767V150.469C621.977 147.045 623.169 145.556 643.123 99.7022C654.59 73.7978 659.206 63.3764 661.291 58.3146C658.908 55.1882 656.228 52.8062 652.654 49.8287V49.5309H680.799C681.395 52.5084 682.884 55.9326 702.243 99.7022C722.049 145.556 723.091 146.449 728.75 150.469V150.767H689.734V150.469C692.563 147.789 694.201 145.854 694.201 141.685C694.201 137.219 692.265 130.371 687.351 117.865C682.735 117.716 677.523 117.716 671.715 117.716C664.865 117.716 658.759 117.716 653.398 118.014C648.931 130.073 647.144 136.921 647.144 141.388C647.144 145.854 648.931 147.938 651.463 150.469V150.767H616.616ZM658.61 104.466C662.631 104.615 667.099 104.615 671.715 104.615C675.289 104.615 678.714 104.615 681.99 104.615C680.799 101.935 679.608 99.1067 678.416 96.1292C675.14 88.3876 672.609 81.986 670.226 76.4775C668.29 81.5393 665.61 87.7921 662.036 96.1292C660.844 99.1067 659.653 101.935 658.61 104.466Z" fill="#181717"/>
<path d="M726.794 100.298C726.794 67.6938 752.259 47.5955 784.722 47.5955C793.657 47.5955 804.528 49.6798 808.995 50.1264L810.782 79.3062H810.485C802.741 68.736 797.38 66.0562 785.467 66.0562C766.406 66.0562 751.514 77.8174 751.514 97.7669C751.514 121.289 766.555 134.242 787.403 134.242C796.635 134.242 803.635 130.966 812.421 122.034H812.569L810.485 146.598C805.273 149.576 794.104 152.404 780.85 152.404C750.472 152.404 726.794 132.306 726.794 100.298Z" fill="#181717"/>
<path d="M819.489 150.767V150.469C827.233 144.961 827.829 142.132 827.829 100.298C827.829 58.4635 827.084 55.3371 819.489 49.8287V49.5309C825.148 49.6798 829.02 49.8287 838.699 49.8287C847.783 49.8287 852.698 49.5309 868.185 49.5309C889.629 49.5309 899.01 59.3567 899.01 76.4775C899.01 88.9831 892.309 98.5112 882.481 103.573C906.009 144.365 909.583 147.64 916.582 149.874V150.171C908.69 150.469 900.946 151.213 891.862 151.213C887.693 151.213 885.906 149.576 883.225 146.003C877.864 138.112 869.823 122.927 861.186 107.444C857.016 107.295 853.293 106.997 850.315 106.699C850.315 142.43 851.208 145.258 858.505 150.469V150.767H819.489ZM850.315 91.9607C854.633 92.4073 859.101 92.4073 861.632 92.4073C870.567 92.4073 876.226 86.8989 876.226 78.264C876.226 68.8848 871.61 64.2697 861.037 64.2697C858.059 64.2697 854.931 64.4185 850.762 64.5674C850.464 72.4579 850.315 81.3905 850.315 91.9607Z" fill="#181717"/>
<path d="M916.201 150.767V150.469C923.498 144.365 924.391 140.941 924.391 100.298C924.391 59.6545 923.498 55.9326 916.201 49.8287V49.6798C963.258 49.6798 974.278 49.5309 977.852 48.6376H978.15L979.192 69.0337H978.894C972.789 66.0562 967.13 65.014 958.195 65.014C954.323 65.014 950.749 65.014 947.622 65.1629C947.324 70.3736 947.026 77.3708 947.026 86.3034C948.962 86.4522 951.196 86.4522 953.579 86.4522C960.131 86.4522 968.023 86.1545 977.107 85.1124L977.554 101.935C964.598 100.893 954.77 100.893 946.877 100.893C946.877 115.93 947.026 126.202 947.473 133.646C950.749 133.646 954.472 133.646 958.791 133.646C968.321 133.646 973.831 131.562 980.83 128.138H981.128L980.086 151.66H979.788C976.214 150.618 959.237 150.767 934.22 150.767C928.561 150.767 922.455 150.767 916.201 150.767Z" fill="#181717"/>
<path d="M982.652 150.767V150.469C988.013 147.045 989.204 145.556 1009.16 99.7022C1020.63 73.7978 1025.24 63.3764 1027.33 58.3146C1024.94 55.1882 1022.26 52.8062 1018.69 49.8287V49.5309H1046.83C1047.43 52.5084 1048.92 55.9326 1068.28 99.7022C1088.08 145.556 1089.13 146.449 1094.79 150.469V150.767H1055.77V150.469C1058.6 147.789 1060.24 145.854 1060.24 141.685C1060.24 137.219 1058.3 130.371 1053.39 117.865C1048.77 117.716 1043.56 117.716 1037.75 117.716C1030.9 117.716 1024.8 117.716 1019.43 118.014C1014.97 130.073 1013.18 136.921 1013.18 141.388C1013.18 145.854 1014.97 147.938 1017.5 150.469V150.767H982.652ZM1024.65 104.466C1028.67 104.615 1033.13 104.615 1037.75 104.615C1041.32 104.615 1044.75 104.615 1048.03 104.615C1046.83 101.935 1045.64 99.1067 1044.45 96.1292C1041.18 88.3876 1038.64 81.986 1036.26 76.4775C1034.33 81.5393 1031.65 87.7921 1028.07 96.1292C1026.88 99.1067 1025.69 101.935 1024.65 104.466Z" fill="#181717"/>
<path d="M1095.36 150.767V150.469C1103.1 144.961 1103.7 142.132 1103.7 100.298C1103.7 58.4635 1102.96 55.3371 1095.36 49.8287V49.5309C1101.02 49.6798 1104.89 49.8287 1114.57 49.8287C1123.66 49.8287 1128.57 49.5309 1144.06 49.5309C1165.5 49.5309 1174.88 59.3567 1174.88 76.4775C1174.88 88.9831 1168.18 98.5112 1158.35 103.573C1181.88 144.365 1185.46 147.64 1192.45 149.874V150.171C1184.56 150.469 1176.82 151.213 1167.73 151.213C1163.56 151.213 1161.78 149.576 1159.1 146.003C1153.74 138.112 1145.69 122.927 1137.06 107.444C1132.89 107.295 1129.17 106.997 1126.19 106.699C1126.19 142.43 1127.08 145.258 1134.38 150.469V150.767H1095.36ZM1126.19 91.9607C1130.51 92.4073 1134.97 92.4073 1137.5 92.4073C1146.44 92.4073 1152.1 86.8989 1152.1 78.264C1152.1 68.8848 1147.48 64.2697 1136.91 64.2697C1133.93 64.2697 1130.8 64.4185 1126.63 64.5674C1126.34 72.4579 1126.19 81.3905 1126.19 91.9607Z" fill="#181717"/>
<path d="M1192.07 150.767V150.469C1199.37 144.365 1200.26 140.941 1200.26 100.298C1200.26 59.6545 1199.37 55.9326 1192.07 49.8287V49.6798C1239.13 49.6798 1250.15 49.5309 1253.72 48.6376H1254.02L1255.06 69.0337H1254.77C1248.66 66.0562 1243 65.014 1234.07 65.014C1230.2 65.014 1226.62 65.014 1223.49 65.1629C1223.2 70.3736 1222.9 77.3708 1222.9 86.3034C1224.83 86.4522 1227.07 86.4522 1229.45 86.4522C1236 86.4522 1243.9 86.1545 1252.98 85.1124L1253.43 101.935C1240.47 100.893 1230.64 100.893 1222.75 100.893C1222.75 115.93 1222.9 126.202 1223.34 133.646C1226.62 133.646 1230.34 133.646 1234.66 133.646C1244.19 133.646 1249.7 131.562 1256.7 128.138H1257L1255.96 151.66H1255.66C1252.09 150.618 1235.11 150.767 1210.09 150.767C1204.43 150.767 1198.33 150.767 1192.07 150.767Z" fill="#181717"/>
</g>
<defs>
<clipPath id="clip0_201_46">
<rect width="1257" height="200" fill="white"/>
</clipPath>
</defs>
</svg>
