<svg width="37" height="37" viewBox="0 0 37 37" fill="none" xmlns="http://www.w3.org/2000/svg">
<path fill-rule="evenodd" clip-rule="evenodd" d="M0 18.5C0 28.7172 8.28275 37 18.5 37C28.7173 37 37 28.7172 37 18.5C37 8.28276 28.7173 0 18.5 0C8.28275 0 0 8.28276 0 18.5ZM15.0312 25.4375L16.1875 23.125V21.9687L13.875 25.4375H15.0312ZM11.5625 32.375L12.7187 30.0625H11.5625V32.375ZM16.1875 30.0625H15.1964L13.875 34.6875H16.1875V30.0625ZM11.5625 23.125V21.9687L13.875 20.8125H15.0312L11.5625 23.125ZM6.93747 21.8036V20.8125H2.31246V23.125L6.93747 21.8036ZM4.62497 25.4375L6.93747 24.2812V25.4375H4.62497ZM15.0312 11.5625L16.1875 13.875V15.0313L13.875 11.5625H15.0312ZM15.1964 6.9375H16.1875V2.3125H13.875L15.1964 6.9375ZM11.5625 4.625V6.9375H12.7187L11.5625 4.625ZM15.0312 16.1875H13.875L11.5625 15.0313V13.875L15.0312 16.1875ZM2.31246 13.875V16.1875H6.93747V15.1964L2.31246 13.875ZM6.93747 12.7188V11.5625H4.62497L6.93747 12.7188ZM21.9688 11.5625L20.8125 13.875V15.0313L23.125 11.5625H21.9688ZM25.4375 4.625L24.2813 6.9375H25.4375V4.625ZM21.8036 6.9375L23.125 2.3125H20.8125V6.9375H21.8036ZM21.9688 16.1875L25.4375 13.875V15.0313L23.125 16.1875H21.9688ZM30.0625 12.7188L32.375 11.5625H30.0625V12.7188ZM34.6875 13.875L30.0625 15.1964V16.1875H34.6875V13.875ZM20.8125 23.125L21.9688 25.4375H23.125L20.8125 21.9687V23.125ZM25.4375 32.375L24.2813 30.0625H25.4375V32.375ZM21.8036 30.0625L23.125 34.6875H20.8125V30.0625H21.8036ZM25.4375 23.125L21.9688 20.8125H23.125L25.4375 21.9687V23.125ZM30.0625 24.2812L32.375 25.4375H30.0625V24.2812ZM30.0625 21.8036L34.6875 23.125V20.8125H30.0625V21.8036Z" fill="white"/>
</svg>
