<svg width="22" height="18" viewBox="0 0 22 18" fill="none" xmlns="http://www.w3.org/2000/svg">
    <path fill-rule="evenodd" clip-rule="evenodd"
          d="M22 17.7778L11 0L0 17.7778H22ZM10.1095 7.6898L10.3976 12.0857H11.6024L11.8905 7.6898V6H10.1095V7.6898ZM10.1488 14.7796C10.3147 14.9265 10.5329 15 10.8036 15H11.1833C11.4627 15 11.6853 14.9265 11.8512 14.7796C12.0171 14.6245 12.1 14.4286 12.1 14.1918C12.1 13.9469 12.0171 13.751 11.8512 13.6041C11.694 13.4571 11.4758 13.3837 11.1964 13.3837H10.8036C10.5329 13.3837 10.3147 13.4612 10.1488 13.6163C9.98294 13.7633 9.9 13.9551 9.9 14.1918C9.9 14.4286 9.98294 14.6245 10.1488 14.7796Z"
          fill="#FF9100"/>
</svg>
